<svg id="visual" viewBox="0 0 900 600" width="900" height="600" xmlns="http://www.w3.org/2000/svg" xmlns:xlink="http://www.w3.org/1999/xlink" version="1.1"><g stroke-width="1" stroke-linejoin="bevel"><path d="M410 280L378 198L316 203Z" fill="#00101c" stroke="#00101c"></path><path d="M316 203L291 292L410 280Z" fill="#246688" stroke="#246688"></path><path d="M316 203L213 281L291 292Z" fill="#297ea6" stroke="#297ea6"></path><path d="M291 292L420 388L410 280Z" fill="#00101c" stroke="#00101c"></path><path d="M304 412L420 388L291 292Z" fill="#0c2435" stroke="#0c2435"></path><path d="M503 80L374 101L378 198Z" fill="#081a28" stroke="#081a28"></path><path d="M378 198L374 101L316 203Z" fill="#205a7a" stroke="#205a7a"></path><path d="M316 203L182 206L213 281Z" fill="#246688" stroke="#246688"></path><path d="M488 374L512 286L410 280Z" fill="#19435d" stroke="#19435d"></path><path d="M410 280L514 205L378 198Z" fill="#081a28" stroke="#081a28"></path><path d="M215 395L304 412L291 292Z" fill="#081a28" stroke="#081a28"></path><path d="M512 286L514 205L410 280Z" fill="#15384f" stroke="#15384f"></path><path d="M199 94L182 206L316 203Z" fill="#1d4e6b" stroke="#1d4e6b"></path><path d="M499 479L488 374L420 388Z" fill="#19435d" stroke="#19435d"></path><path d="M420 388L488 374L410 280Z" fill="#297ea6" stroke="#297ea6"></path><path d="M374 101L301 72L316 203Z" fill="#1d4e6b" stroke="#1d4e6b"></path><path d="M213 281L215 395L291 292Z" fill="#19435d" stroke="#19435d"></path><path d="M83 299L215 395L213 281Z" fill="#112e42" stroke="#112e42"></path><path d="M301 72L199 94L316 203Z" fill="#297ea6" stroke="#297ea6"></path><path d="M514 205L503 80L378 198Z" fill="#1d4e6b" stroke="#1d4e6b"></path><path d="M374 101L326 0L301 72Z" fill="#1d4e6b" stroke="#1d4e6b"></path><path d="M101 116L124 201L182 206Z" fill="#112e42" stroke="#112e42"></path><path d="M182 206L124 201L213 281Z" fill="#205a7a" stroke="#205a7a"></path><path d="M323 520L424 481L304 412Z" fill="#00101c" stroke="#00101c"></path><path d="M304 412L424 481L420 388Z" fill="#0c2435" stroke="#0c2435"></path><path d="M623 278L592 215L512 286Z" fill="#00101c" stroke="#00101c"></path><path d="M512 286L592 215L514 205Z" fill="#246688" stroke="#246688"></path><path d="M514 205L595 116L503 80Z" fill="#205a7a" stroke="#205a7a"></path><path d="M623 278L512 286L596 428Z" fill="#15384f" stroke="#15384f"></path><path d="M393 0L326 0L374 101Z" fill="#00101c" stroke="#00101c"></path><path d="M301 72L197 0L199 94Z" fill="#205a7a" stroke="#205a7a"></path><path d="M503 80L393 0L374 101Z" fill="#0c2435" stroke="#0c2435"></path><path d="M102 416L220 486L215 395Z" fill="#19435d" stroke="#19435d"></path><path d="M215 395L220 486L304 412Z" fill="#112e42" stroke="#112e42"></path><path d="M220 486L323 520L304 412Z" fill="#19435d" stroke="#19435d"></path><path d="M500 600L499 479L424 481Z" fill="#297ea6" stroke="#297ea6"></path><path d="M424 481L499 479L420 388Z" fill="#081a28" stroke="#081a28"></path><path d="M124 201L83 299L213 281Z" fill="#00101c" stroke="#00101c"></path><path d="M596 428L512 286L488 374Z" fill="#205a7a" stroke="#205a7a"></path><path d="M592 215L595 116L514 205Z" fill="#297ea6" stroke="#297ea6"></path><path d="M503 80L493 0L393 0Z" fill="#19435d" stroke="#19435d"></path><path d="M688 217L595 116L592 215Z" fill="#277297" stroke="#277297"></path><path d="M199 94L101 116L182 206Z" fill="#246688" stroke="#246688"></path><path d="M124 201L0 222L83 299Z" fill="#205a7a" stroke="#205a7a"></path><path d="M91 0L101 116L199 94Z" fill="#1d4e6b" stroke="#1d4e6b"></path><path d="M596 0L493 0L503 80Z" fill="#15384f" stroke="#15384f"></path><path d="M83 299L102 416L215 395Z" fill="#19435d" stroke="#19435d"></path><path d="M326 0L197 0L301 72Z" fill="#081a28" stroke="#081a28"></path><path d="M499 479L596 428L488 374Z" fill="#00101c" stroke="#00101c"></path><path d="M500 600L581 485L499 479Z" fill="#277297" stroke="#277297"></path><path d="M499 479L581 485L596 428Z" fill="#205a7a" stroke="#205a7a"></path><path d="M714 396L684 287L623 278Z" fill="#19435d" stroke="#19435d"></path><path d="M623 278L688 217L592 215Z" fill="#297ea6" stroke="#297ea6"></path><path d="M714 396L623 278L596 428Z" fill="#297ea6" stroke="#297ea6"></path><path d="M684 287L688 217L623 278Z" fill="#277297" stroke="#277297"></path><path d="M595 116L596 0L503 80Z" fill="#00101c" stroke="#00101c"></path><path d="M218 600L323 520L220 486Z" fill="#15384f" stroke="#15384f"></path><path d="M218 600L302 600L323 520Z" fill="#0c2435" stroke="#0c2435"></path><path d="M323 520L424 600L424 481Z" fill="#00101c" stroke="#00101c"></path><path d="M302 600L424 600L323 520Z" fill="#205a7a" stroke="#205a7a"></path><path d="M0 117L0 222L101 116Z" fill="#297ea6" stroke="#297ea6"></path><path d="M101 116L0 222L124 201Z" fill="#1d4e6b" stroke="#1d4e6b"></path><path d="M83 299L0 398L102 416Z" fill="#00101c" stroke="#00101c"></path><path d="M691 79L596 0L595 116Z" fill="#112e42" stroke="#112e42"></path><path d="M0 222L0 298L83 299Z" fill="#297ea6" stroke="#297ea6"></path><path d="M102 416L97 502L220 486Z" fill="#15384f" stroke="#15384f"></path><path d="M0 505L97 502L102 416Z" fill="#112e42" stroke="#112e42"></path><path d="M197 0L91 0L199 94Z" fill="#297ea6" stroke="#297ea6"></path><path d="M97 502L218 600L220 486Z" fill="#297ea6" stroke="#297ea6"></path><path d="M424 600L500 600L424 481Z" fill="#1d4e6b" stroke="#1d4e6b"></path><path d="M91 0L0 117L101 116Z" fill="#277297" stroke="#277297"></path><path d="M0 298L0 398L83 299Z" fill="#0c2435" stroke="#0c2435"></path><path d="M688 217L691 79L595 116Z" fill="#246688" stroke="#246688"></path><path d="M684 525L596 428L581 485Z" fill="#205a7a" stroke="#205a7a"></path><path d="M684 525L714 396L596 428Z" fill="#246688" stroke="#246688"></path><path d="M684 287L800 323L688 217Z" fill="#1d4e6b" stroke="#1d4e6b"></path><path d="M688 217L815 196L691 79Z" fill="#15384f" stroke="#15384f"></path><path d="M500 600L587 600L581 485Z" fill="#00101c" stroke="#00101c"></path><path d="M691 79L685 0L596 0Z" fill="#112e42" stroke="#112e42"></path><path d="M587 600L684 525L581 485Z" fill="#277297" stroke="#277297"></path><path d="M0 505L95 600L97 502Z" fill="#205a7a" stroke="#205a7a"></path><path d="M97 502L95 600L218 600Z" fill="#112e42" stroke="#112e42"></path><path d="M0 398L0 505L102 416Z" fill="#19435d" stroke="#19435d"></path><path d="M91 0L0 0L0 117Z" fill="#205a7a" stroke="#205a7a"></path><path d="M785 477L774 398L714 396Z" fill="#15384f" stroke="#15384f"></path><path d="M714 396L800 323L684 287Z" fill="#00101c" stroke="#00101c"></path><path d="M691 79L825 0L685 0Z" fill="#297ea6" stroke="#297ea6"></path><path d="M774 398L800 323L714 396Z" fill="#00101c" stroke="#00101c"></path><path d="M800 323L815 196L688 217Z" fill="#15384f" stroke="#15384f"></path><path d="M684 525L785 477L714 396Z" fill="#00101c" stroke="#00101c"></path><path d="M900 395L900 322L800 323Z" fill="#205a7a" stroke="#205a7a"></path><path d="M800 323L900 214L815 196Z" fill="#15384f" stroke="#15384f"></path><path d="M787 600L785 477L684 525Z" fill="#15384f" stroke="#15384f"></path><path d="M815 196L813 93L691 79Z" fill="#297ea6" stroke="#297ea6"></path><path d="M0 505L0 600L95 600Z" fill="#246688" stroke="#246688"></path><path d="M587 600L708 600L684 525Z" fill="#15384f" stroke="#15384f"></path><path d="M900 81L825 0L813 93Z" fill="#19435d" stroke="#19435d"></path><path d="M813 93L825 0L691 79Z" fill="#277297" stroke="#277297"></path><path d="M900 322L900 214L800 323Z" fill="#112e42" stroke="#112e42"></path><path d="M815 196L900 81L813 93Z" fill="#1d4e6b" stroke="#1d4e6b"></path><path d="M900 395L800 323L774 398Z" fill="#15384f" stroke="#15384f"></path><path d="M900 395L774 398L785 477Z" fill="#112e42" stroke="#112e42"></path><path d="M708 600L787 600L684 525Z" fill="#277297" stroke="#277297"></path><path d="M900 478L900 395L785 477Z" fill="#081a28" stroke="#081a28"></path><path d="M900 214L900 81L815 196Z" fill="#112e42" stroke="#112e42"></path><path d="M787 600L900 478L785 477Z" fill="#081a28" stroke="#081a28"></path><path d="M900 81L900 0L825 0Z" fill="#112e42" stroke="#112e42"></path><path d="M787 600L900 600L900 478Z" fill="#081a28" stroke="#081a28"></path></g></svg>